<svg xmlns="http://www.w3.org/2000/svg" width="46" height="46" viewBox="0 0 46 46">
  <path id="中マド_2" data-name="中マド 2" d="M-3495,26a22.857,22.857,0,0,1-8.953-1.808,22.921,22.921,0,0,1-7.311-4.929,22.926,22.926,0,0,1-4.929-7.311A22.86,22.86,0,0,1-3518,3a22.859,22.859,0,0,1,1.807-8.953,22.924,22.924,0,0,1,4.929-7.311,22.921,22.921,0,0,1,7.311-4.929A22.859,22.859,0,0,1-3495-20a22.856,22.856,0,0,1,8.953,1.807,22.921,22.921,0,0,1,7.311,4.929,22.92,22.92,0,0,1,4.929,7.311A22.859,22.859,0,0,1-3472,3a22.86,22.86,0,0,1-1.807,8.953,22.922,22.922,0,0,1-4.929,7.311,22.921,22.921,0,0,1-7.311,4.929A22.854,22.854,0,0,1-3495,26Zm8.169-28a.986.986,0,0,0-.716.307,1.016,1.016,0,0,0-.308.743V7.011a1.012,1.012,0,0,0,.308.742.984.984,0,0,0,.716.308h3.993a1.016,1.016,0,0,0,.742-.308,1.011,1.011,0,0,0,.307-.742,1.012,1.012,0,0,0-.307-.742,1.016,1.016,0,0,0-.742-.308h-2.918V4.067h2.918a1.016,1.016,0,0,0,.742-.308,1.012,1.012,0,0,0,.307-.743,1.011,1.011,0,0,0-.307-.742,1.016,1.016,0,0,0-.742-.308h-2.918V.1h2.918a1.018,1.018,0,0,0,.742-.307,1.015,1.015,0,0,0,.307-.743,1.015,1.015,0,0,0-.307-.743,1.018,1.018,0,0,0-.742-.307Zm-8.421,4.07,0,0,4.093,5.552a.881.881,0,0,0,.359.32,1.024,1.024,0,0,0,.46.115,1.061,1.061,0,0,0,.18-.014.942.942,0,0,0,.153-.038.959.959,0,0,0,.525-.384,1.065,1.065,0,0,0,.192-.614V-.95a1.016,1.016,0,0,0-.308-.743,1.016,1.016,0,0,0-.743-.307,1.015,1.015,0,0,0-.741.307,1.015,1.015,0,0,0-.307.743V3.965l-4.071-5.555a1.256,1.256,0,0,0-.371-.294A1,1,0,0,0-3496.3-2a1.246,1.246,0,0,0-.166.013.907.907,0,0,0-.167.039,1.032,1.032,0,0,0-.512.383,1.027,1.027,0,0,0-.205.615V7.011a1.013,1.013,0,0,0,.308.742,1.012,1.012,0,0,0,.742.308,1.013,1.013,0,0,0,.742-.308,1.013,1.013,0,0,0,.308-.742V2.07ZM-3499.911-2a1.018,1.018,0,0,0-.742.307,1.018,1.018,0,0,0-.307.743V7.011a1.014,1.014,0,0,0,.307.742,1.016,1.016,0,0,0,.742.308,1.016,1.016,0,0,0,.742-.308,1.015,1.015,0,0,0,.307-.742V-.95a1.019,1.019,0,0,0-.307-.743A1.018,1.018,0,0,0-3499.911-2Zm-7.04,0a1.014,1.014,0,0,0-.741.307A1.016,1.016,0,0,0-3508-.95V7.011a1.012,1.012,0,0,0,.308.742,1.011,1.011,0,0,0,.741.308h3.968a1.016,1.016,0,0,0,.742-.308,1.014,1.014,0,0,0,.307-.742,1.015,1.015,0,0,0-.307-.742,1.016,1.016,0,0,0-.742-.308h-2.918V-.95a1.016,1.016,0,0,0-.308-.743A1.015,1.015,0,0,0-3506.951-2Z" transform="translate(3518 20)" fill="#fff"/>
</svg>
