<svg xmlns="http://www.w3.org/2000/svg" width="144.515" height="146.786" viewBox="0 0 144.515 146.786">
  <g id="グループ_1115" data-name="グループ 1115" transform="translate(-1619 -1084.448)">
    <g id="グループ_874" data-name="グループ 874" transform="translate(1619 1084.448)">
      <g id="グループ_259" data-name="グループ 259" transform="matrix(0.985, -0.174, 0.174, 0.985, 0, 24.368)">
        <g id="楕円形_46" data-name="楕円形 46" transform="translate(0 0)" fill="none" stroke="#5f5d5d" stroke-width="1.5">
          <circle cx="18.191" cy="18.191" r="18.191" stroke="none"/>
          <circle cx="18.191" cy="18.191" r="17.441" fill="none"/>
        </g>
        <g id="前面オブジェクトで型抜き_1" data-name="前面オブジェクトで型抜き 1" transform="translate(51.974 0)" fill="none">
          <path d="M18.191,36.382A18.191,18.191,0,0,1,5.328,5.328,18.072,18.072,0,0,1,18.191,0a18.328,18.328,0,0,1,3.617.36A18.2,18.2,0,0,0,35.071,24.985a18.2,18.2,0,0,1-16.88,11.4Z" stroke="none"/>
          <path d="M 18.19089698791504 34.88179397583008 C 21.58586692810059 34.88179397583008 24.85264587402344 33.86894607543945 27.6380558013916 31.95272445678711 C 29.88090515136719 30.40978050231934 31.69380760192871 28.37107276916504 32.9505729675293 25.99383163452148 C 29.28227043151855 24.87449836730957 25.9795036315918 22.68272590637207 23.51071548461914 19.69939422607422 C 20.59991645812988 16.18194580078125 18.99686622619629 11.72638511657715 18.99686622619629 7.153465270996094 C 18.99686622619629 5.246902465820312 19.2656364440918 3.378311395645142 19.79763412475586 1.576502561569214 C 19.26449966430664 1.525614500045776 18.72780799865723 1.500005125999451 18.19089698791504 1.500005125999451 C 13.7324161529541 1.500005125999451 9.540905952453613 3.236114978790283 6.388506412506104 6.388514995574951 C 3.236106395721436 9.540915489196777 1.499996423721313 13.73241519927979 1.499996423721313 18.19089508056641 C 1.499996423721313 22.64885520935059 3.236116409301758 26.84017562866211 6.38853645324707 29.99279594421387 C 9.541086196899414 33.14551544189453 13.73258686065674 34.88179397583008 18.19089698791504 34.88179397583008 M 18.19089698791504 36.38179397583008 C 13.33190631866455 36.38179397583008 8.763716697692871 34.48947525024414 5.327846527099609 31.05342483520508 C 1.892136454582214 27.61750602722168 -3.587036189856008e-06 23.04951477050781 -3.587036189856008e-06 18.19089508056641 C -3.587036189856008e-06 13.33174514770508 1.892136454582214 8.763565063476562 5.327846527099609 5.327855110168457 C 8.763566017150879 1.89213502407074 13.33174610137939 5.080566552351229e-06 18.19089698791504 5.080566552351229e-06 C 19.40819549560547 5.080566552351229e-06 20.62517547607422 0.1210150793194771 21.80803680419922 0.359685093164444 C 20.93839645385742 2.518054962158203 20.49686622619629 4.803094863891602 20.49686622619629 7.153465270996094 C 20.49686622619629 11.37804508209229 21.97761726379395 15.49399471282959 24.66633605957031 18.74308586120605 C 27.31981658935547 21.94960594177246 31.0147762298584 24.16620445251465 35.070556640625 24.98458480834961 C 33.729736328125 28.31265449523926 31.45320701599121 31.14879417419434 28.48822593688965 33.18853378295898 C 25.45158576965332 35.2775764465332 21.89081573486328 36.38179397583008 18.19089698791504 36.38179397583008 Z" stroke="none" fill="#5f5d5d"/>
        </g>
        <g id="楕円形_48" data-name="楕円形 48" transform="translate(103.948 0)" fill="none" stroke="#5f5d5d" stroke-width="1.5">
          <circle cx="18.191" cy="18.191" r="18.191" stroke="none"/>
          <circle cx="18.191" cy="18.191" r="17.441" fill="none"/>
        </g>
      </g>
      <text id="nurse" transform="translate(19.921 91.786)" fill="#5f5d5d" font-size="40" font-family="Didot-Bold, Didot" font-weight="700"><tspan x="0" y="0">nurse</tspan></text>
    </g>
    <text id="line" transform="translate(1655.921 1219.234)" fill="#5f5d5d" font-size="40" font-family="Didot-Bold, Didot" font-weight="700"><tspan x="0" y="0">line</tspan></text>
  </g>
</svg>
