<svg height="111.786" viewBox="0 0 144.515 111.786" width="144.515" xmlns="http://www.w3.org/2000/svg"><g fill="none" transform="matrix(.985 -.174 .174 .985 0 24.368)"><g stroke="#5f5d5d" stroke-width="1.5"><circle cx="18.191" cy="18.191" r="18.191" stroke="none"/><circle cx="18.191" cy="18.191" fill="none" r="17.441"/></g><g transform="translate(51.974)"><path d="m18.191 36.382a18.191 18.191 0 0 1 -12.863-31.054 18.072 18.072 0 0 1 12.863-5.328 18.328 18.328 0 0 1 3.617.36 18.2 18.2 0 0 0 13.263 24.625 18.2 18.2 0 0 1 -16.88 11.4z"/><path d="m18.19089699 34.88179398c3.39496994 0 6.66174888-1.0128479 9.44715881-2.92906952 2.24284935-1.54294396 4.0557518-3.58165169 5.31251717-5.95889283-3.66830254-1.11933326-6.97106934-3.31110572-9.43985749-6.2944374-2.91079902-3.51744843-4.51384925-7.97300911-4.51384925-12.54592896 0-1.9065628.26877021-3.77515387.80076789-5.57696271-.53313446-.05088806-1.06982612-.07649743-1.60673713-.07649743-4.45848084 0-8.64999104 1.73610985-11.80239058 4.88850987-3.15240001 3.15240049-4.88850999 7.3439002-4.88850999 11.80238008 0 4.45796013 1.73611999 8.64928055 4.88854003 11.80190086 3.15254975 3.1527195 7.34405041 4.88899804 11.80236054 4.88899804m0 1.5c-4.85899067 0-9.42718029-1.89231873-12.86305046-5.32836914-3.43571008-3.43591881-5.32785012-8.00391007-5.32785012-12.86252976 0-4.85914993 1.89214004-9.42733002 5.32785012-12.86303997 3.43571949-3.43572009 8.00389957-5.32785003 12.86305046-5.32785003 1.21729851 0 2.43427849.12101 3.61713981.35968001-.86964035 2.15836987-1.31117057 4.44340977-1.31117057 6.79378018 0 4.22457981 1.48075103 8.34052944 4.16946983 11.58962059 2.65348053 3.20652008 6.34844017 5.42311859 10.40422058 6.24149895-1.34082031 3.32806969-3.61734962 6.16420936-6.5823307 8.20394897-3.03664017 2.08904267-6.59741021 3.1932602-10.29732895 3.1932602z" fill="#5f5d5d"/></g><g stroke="#5f5d5d" stroke-width="1.5"><circle cx="122.139" cy="18.191" r="18.191" stroke="none"/><circle cx="122.139" cy="18.191" fill="none" r="17.441"/></g></g><text fill="#5f5d5d" font-family="Didot-Bold, Didot" font-size="40" font-weight="700" transform="translate(18.921 99.786)"><tspan x="0" y="0">n</tspan><tspan text-decoration="line-through" y="0">o</tspan><tspan xml:space="preserve" y="0"> ize</tspan></text></svg>