<svg height="46" viewBox="0 0 46 46" width="46" xmlns="http://www.w3.org/2000/svg"><path d="m-3495 26a22.857 22.857 0 0 1 -8.953-1.808 22.921 22.921 0 0 1 -7.311-4.929 22.926 22.926 0 0 1 -4.929-7.311 22.86 22.86 0 0 1 -1.807-8.952 22.859 22.859 0 0 1 1.807-8.953 22.924 22.924 0 0 1 4.929-7.311 22.921 22.921 0 0 1 7.311-4.929 22.859 22.859 0 0 1 8.953-1.807 22.856 22.856 0 0 1 8.953 1.807 22.921 22.921 0 0 1 7.311 4.929 22.92 22.92 0 0 1 4.929 7.311 22.859 22.859 0 0 1 1.807 8.953 22.86 22.86 0 0 1 -1.807 8.953 22.922 22.922 0 0 1 -4.929 7.311 22.921 22.921 0 0 1 -7.311 4.929 22.854 22.854 0 0 1 -8.953 1.807zm-12-15.223a13.253 13.253 0 0 0 7.3 2.17 14.1 14.1 0 0 0 5.557-1.054 12.085 12.085 0 0 0 4.335-3.164 13.918 13.918 0 0 0 3.725-9.4v-.592a9.372 9.372 0 0 0 2.369-2.468 8.188 8.188 0 0 1 -2.763.741 4.4 4.4 0 0 0 2.121-2.665 8.926 8.926 0 0 1 -3.059 1.184 4.58 4.58 0 0 0 -3.45-1.529 4.649 4.649 0 0 0 -3.4 1.382 4.649 4.649 0 0 0 -1.382 3.4 4.335 4.335 0 0 0 .1 1.086 13.45 13.45 0 0 1 -5.465-1.394 13.463 13.463 0 0 1 -4.354-3.59 4.775 4.775 0 0 0 -.642 2.369 4.5 4.5 0 0 0 2.121 4 4.524 4.524 0 0 1 -2.171-.592v.05a4.563 4.563 0 0 0 1.111 3.034 4.84 4.84 0 0 0 2.739 1.653 5.588 5.588 0 0 1 -1.283.2 5.966 5.966 0 0 1 -.888-.1 4.538 4.538 0 0 0 1.678 2.344 4.831 4.831 0 0 0 2.764.962 9.326 9.326 0 0 1 -5.921 2.073 10.376 10.376 0 0 1 -1.142-.1z" fill="#fff" transform="translate(3518 20)"/></svg>